<svg xmlns="http://www.w3.org/2000/svg" width="1920" height="1080" fill="none"><path fill="#fff" d="M0 0h1920v1080H0z"/><path fill="#FF8C00" d="M1516.73 650.525c-16.46 0-29.86-13.398-29.86-29.859 0-16.078 13.4-29.477 29.86-29.477 15.7 0 29.48 13.399 29.48 29.477 0 16.461-13.78 29.859-29.48 29.859Z"/><path fill="#000" d="M1372.01 651.674c-62.78 0-101.07-41.727-101.07-106.805 0-64.312 39.05-107.953 98.39-107.953 50.91 0 94.93 31.773 94.93 104.891v15.312h-145.08c.57 35.41 21.44 56.274 53.21 56.274 21.44 0 35.98-9.188 42.11-21.438h47.85c-8.8 35.984-42.11 59.719-90.34 59.719Zm-52.45-127.86h98c-.38-28.328-19.14-49-47.47-49-29.47 0-49 22.395-50.53 49Zm-249.22 65.079c0-46.704 38.66-60.485 77.33-62.782 14.35-.957 44.21-2.679 53.21-3.062v-16.461c0-20.672-13.4-32.539-37.52-32.539-21.82 0-35.22 9.953-39.04 24.883h-47.09c3.45-35.219 35.22-62.016 87.28-62.016 39.43 0 84.99 16.078 84.99 71.586v138.961h-46.71v-28.711h-1.53c-9.19 17.609-28.71 32.922-61.25 32.922-39.81 0-69.67-21.82-69.67-62.781Zm47.09-.383c0 17.992 14.54 27.179 35.21 27.179 29.48 0 48.62-19.523 48.62-42.875v-17.226c-8.99.574-36.17 2.488-45.94 3.062-23.35 1.914-37.89 11.485-37.89 29.86ZM860.925 725.557V439.596h47.851v34.07h3.063c7.656-14.93 22.969-36.75 59.719-36.75 47.852 0 85.752 37.516 85.752 106.805 0 68.523-36.75 107.57-85.752 107.57-35.985 0-52.063-21.437-59.719-36.75h-1.914v111.016h-49Zm47.851-182.219c0 40.578 17.61 67.758 49.383 67.758 32.156 0 49.381-28.328 49.381-67.758 0-38.664-16.842-66.609-49.381-66.609-31.773 0-49.383 26.414-49.383 66.609ZM739.174 651.674c-60.485 0-99.531-42.875-99.531-107.188 0-64.695 39.046-107.57 99.531-107.57 60.867 0 99.531 42.875 99.531 107.57 0 64.313-38.664 107.188-99.531 107.188Zm.383-39.047c33.304 0 49.765-30.242 49.765-68.523 0-37.899-16.461-68.524-49.765-68.524-34.071 0-50.532 30.625-50.532 68.524 0 38.281 16.461 68.523 50.532 68.523Zm-221.281 46.735c-5.32 0-9.52-2.24-12.6-6.72-3.08-4.48-3.64-9.94-1.68-16.38l36.54-123.48c3.92-13.44 5.46-23.24 4.62-29.4-.56-6.16-2.52-9.24-5.88-9.24-5.88 0-16.94 9.94-33.18 29.82-16.24 19.88-38.08 54.18-65.52 102.9l-12.18 46.2h-54.6l72.66-273.42 34.44 18.06-83.58 1.68 1.26-9.24c30.52-6.16 56.84-16.66 78.96-31.5 4.2-2.8 8.26-4.2 12.18-4.2 5.04 0 8.82 2.1 11.34 6.3 2.8 3.92 3.36 8.82 1.68 14.7l-40.32 151.2c-4.2 15.68-11.34 35.14-21.42 58.38l-1.68-2.1c23.24-40.04 46.76-74.76 70.56-104.16 23.8-29.4 45.92-44.1 66.36-44.1 11.76 0 19.88 6.02 24.36 18.06 4.76 12.04 3.22 31.36-4.62 57.96l-18.48 61.32c-2.52 8.4-6.02 17.36-10.5 26.88-4.2 9.52-8.68 17.92-13.44 25.2l-23.52-13.02c37.52-9.8 67.62-21.42 90.3-34.86l5.88 8.82-95.76 70.14c-4.2 2.8-8.26 4.2-12.18 4.2Z"/></svg>